<?xml version="1.0" encoding="UTF-8"?>
<svg xmlns="http://www.w3.org/2000/svg" xmlns:xlink="http://www.w3.org/1999/xlink" width="75px" height="75px" viewBox="0 0 75 75" version="1.1">
<g id="surface1">
<path style=" stroke:none;fill-rule:nonzero;fill:rgb(0%,0%,0%);fill-opacity:1;" d="M 71.875 54.6875 L 71.875 7.8125 L 3.125 7.8125 L 3.125 54.6875 L 0 54.6875 L 0 61.410156 L 3.851562 67.1875 L 71.148438 67.1875 L 75 61.410156 L 75 54.6875 Z M 6.25 10.9375 L 68.75 10.9375 L 68.75 54.6875 L 6.25 54.6875 Z M 71.875 60.464844 L 69.476562 64.0625 L 5.523438 64.0625 L 3.125 60.464844 L 3.125 57.8125 L 71.875 57.8125 Z M 71.875 60.464844 "/>
<path style=" stroke:none;fill-rule:nonzero;fill:rgb(0%,0%,0%);fill-opacity:1;" d="M 35.9375 59.375 L 39.0625 59.375 L 39.0625 62.5 L 35.9375 62.5 Z M 35.9375 59.375 "/>
<path style=" stroke:none;fill-rule:nonzero;fill:rgb(0%,0%,0%);fill-opacity:1;" d="M 29.6875 59.375 L 32.8125 59.375 L 32.8125 62.5 L 29.6875 62.5 Z M 29.6875 59.375 "/>
<path style=" stroke:none;fill-rule:nonzero;fill:rgb(0%,0%,0%);fill-opacity:1;" d="M 42.1875 59.375 L 45.3125 59.375 L 45.3125 62.5 L 42.1875 62.5 Z M 42.1875 59.375 "/>
<path style=" stroke:none;fill-rule:nonzero;fill:rgb(0%,0%,0%);fill-opacity:1;" d="M 15.625 28.125 L 15.625 17.1875 L 12.5 17.1875 L 12.5 18.75 L 10.9375 18.75 L 10.9375 21.875 L 12.5 21.875 L 12.5 28.125 L 10.9375 28.125 L 10.9375 31.25 L 17.1875 31.25 L 17.1875 28.125 Z M 15.625 28.125 "/>
<path style=" stroke:none;fill-rule:nonzero;fill:rgb(0%,0%,0%);fill-opacity:1;" d="M 39.0625 28.125 L 39.0625 17.1875 L 35.9375 17.1875 L 35.9375 18.75 L 34.375 18.75 L 34.375 21.875 L 35.9375 21.875 L 35.9375 28.125 L 34.375 28.125 L 34.375 31.25 L 40.625 31.25 L 40.625 28.125 Z M 39.0625 28.125 "/>
<path style=" stroke:none;fill-rule:nonzero;fill:rgb(0%,0%,0%);fill-opacity:1;" d="M 50 28.125 L 50 17.1875 L 46.875 17.1875 L 46.875 18.75 L 45.3125 18.75 L 45.3125 21.875 L 46.875 21.875 L 46.875 28.125 L 45.3125 28.125 L 45.3125 31.25 L 51.5625 31.25 L 51.5625 28.125 Z M 50 28.125 "/>
<path style=" stroke:none;fill-rule:nonzero;fill:rgb(0%,0%,0%);fill-opacity:1;" d="M 25 17.1875 C 22.414062 17.1875 20.3125 19.289062 20.3125 21.875 L 20.3125 26.5625 C 20.3125 29.148438 22.414062 31.25 25 31.25 C 27.585938 31.25 29.6875 29.148438 29.6875 26.5625 L 29.6875 21.875 C 29.6875 19.289062 27.585938 17.1875 25 17.1875 Z M 26.5625 26.5625 C 26.5625 27.425781 25.863281 28.125 25 28.125 C 24.136719 28.125 23.4375 27.425781 23.4375 26.5625 L 23.4375 21.875 C 23.4375 21.011719 24.136719 20.3125 25 20.3125 C 25.863281 20.3125 26.5625 21.011719 26.5625 21.875 Z M 26.5625 26.5625 "/>
<path style=" stroke:none;fill-rule:nonzero;fill:rgb(0%,0%,0%);fill-opacity:1;" d="M 59.375 17.1875 C 56.789062 17.1875 54.6875 19.289062 54.6875 21.875 L 54.6875 26.5625 C 54.6875 29.148438 56.789062 31.25 59.375 31.25 C 61.960938 31.25 64.0625 29.148438 64.0625 26.5625 L 64.0625 21.875 C 64.0625 19.289062 61.960938 17.1875 59.375 17.1875 Z M 60.9375 26.5625 C 60.9375 27.425781 60.238281 28.125 59.375 28.125 C 58.511719 28.125 57.8125 27.425781 57.8125 26.5625 L 57.8125 21.875 C 57.8125 21.011719 58.511719 20.3125 59.375 20.3125 C 60.238281 20.3125 60.9375 21.011719 60.9375 21.875 Z M 60.9375 26.5625 "/>
<path style=" stroke:none;fill-rule:nonzero;fill:rgb(0%,0%,0%);fill-opacity:1;" d="M 12.5 35.9375 L 15.625 35.9375 L 15.625 46.875 L 12.5 46.875 Z M 12.5 35.9375 "/>
<path style=" stroke:none;fill-rule:nonzero;fill:rgb(0%,0%,0%);fill-opacity:1;" d="M 12.5 48.4375 L 15.625 48.4375 L 15.625 51.5625 L 12.5 51.5625 Z M 12.5 48.4375 "/>
<path style=" stroke:none;fill-rule:nonzero;fill:rgb(0%,0%,0%);fill-opacity:1;" d="M 28.125 40.625 L 31.25 40.625 L 31.25 51.5625 L 28.125 51.5625 Z M 28.125 40.625 "/>
<path style=" stroke:none;fill-rule:nonzero;fill:rgb(0%,0%,0%);fill-opacity:1;" d="M 28.125 35.9375 L 31.25 35.9375 L 31.25 39.0625 L 28.125 39.0625 Z M 28.125 35.9375 "/>
<path style=" stroke:none;fill-rule:nonzero;fill:rgb(0%,0%,0%);fill-opacity:1;" d="M 51.5625 35.9375 L 54.6875 35.9375 L 54.6875 46.875 L 51.5625 46.875 Z M 51.5625 35.9375 "/>
<path style=" stroke:none;fill-rule:nonzero;fill:rgb(0%,0%,0%);fill-opacity:1;" d="M 51.5625 48.4375 L 54.6875 48.4375 L 54.6875 51.5625 L 51.5625 51.5625 Z M 51.5625 48.4375 "/>
<path style=" stroke:none;fill-rule:nonzero;fill:rgb(0%,0%,0%);fill-opacity:1;" d="M 59.375 40.625 L 62.5 40.625 L 62.5 51.5625 L 59.375 51.5625 Z M 59.375 40.625 "/>
<path style=" stroke:none;fill-rule:nonzero;fill:rgb(0%,0%,0%);fill-opacity:1;" d="M 59.375 35.9375 L 62.5 35.9375 L 62.5 39.0625 L 59.375 39.0625 Z M 59.375 35.9375 "/>
<path style=" stroke:none;fill-rule:nonzero;fill:rgb(0%,0%,0%);fill-opacity:1;" d="M 20.3125 48.4375 L 23.4375 48.4375 L 23.4375 51.5625 L 20.3125 51.5625 Z M 20.3125 48.4375 "/>
<path style=" stroke:none;fill-rule:nonzero;fill:rgb(0%,0%,0%);fill-opacity:1;" d="M 20.3125 35.9375 L 23.4375 35.9375 L 23.4375 42.1875 L 20.3125 42.1875 Z M 20.3125 35.9375 "/>
<path style=" stroke:none;fill-rule:nonzero;fill:rgb(0%,0%,0%);fill-opacity:1;" d="M 20.3125 43.75 L 23.4375 43.75 L 23.4375 46.875 L 20.3125 46.875 Z M 20.3125 43.75 "/>
<path style=" stroke:none;fill-rule:nonzero;fill:rgb(0%,0%,0%);fill-opacity:1;" d="M 43.75 48.4375 L 46.875 48.4375 L 46.875 51.5625 L 43.75 51.5625 Z M 43.75 48.4375 "/>
<path style=" stroke:none;fill-rule:nonzero;fill:rgb(0%,0%,0%);fill-opacity:1;" d="M 43.75 35.9375 L 46.875 35.9375 L 46.875 42.1875 L 43.75 42.1875 Z M 43.75 35.9375 "/>
<path style=" stroke:none;fill-rule:nonzero;fill:rgb(0%,0%,0%);fill-opacity:1;" d="M 43.75 43.75 L 46.875 43.75 L 46.875 46.875 L 43.75 46.875 Z M 43.75 43.75 "/>
<path style=" stroke:none;fill-rule:nonzero;fill:rgb(0%,0%,0%);fill-opacity:1;" d="M 35.9375 35.9375 L 39.0625 35.9375 L 39.0625 39.0625 L 35.9375 39.0625 Z M 35.9375 35.9375 "/>
<path style=" stroke:none;fill-rule:nonzero;fill:rgb(0%,0%,0%);fill-opacity:1;" d="M 35.9375 45.3125 L 39.0625 45.3125 L 39.0625 51.5625 L 35.9375 51.5625 Z M 35.9375 45.3125 "/>
<path style=" stroke:none;fill-rule:nonzero;fill:rgb(0%,0%,0%);fill-opacity:1;" d="M 35.9375 40.625 L 39.0625 40.625 L 39.0625 43.75 L 35.9375 43.75 Z M 35.9375 40.625 "/>
</g>
</svg>
